G75*
%MOIN*%
%OFA0B0*%
%FSLAX25Y25*%
%IPPOS*%
%LPD*%
%AMOC8*
5,1,8,0,0,1.08239X$1,22.5*
%
%ADD10C,0.00600*%
%ADD11C,0.00500*%
%ADD12C,0.00400*%
D10*
X0001300Y0001300D02*
X0281300Y0001300D01*
X0281300Y0126300D01*
X0001300Y0126300D01*
X0001300Y0001300D01*
X0013800Y0013800D02*
X0013800Y0016300D01*
X0013800Y0013800D02*
X0016300Y0013800D01*
X0026300Y0013800D02*
X0028800Y0013800D01*
X0028800Y0016300D01*
X0028800Y0026300D02*
X0028800Y0028800D01*
X0026300Y0028800D01*
X0016300Y0028800D02*
X0013800Y0028800D01*
X0013800Y0026300D01*
X0013800Y0098800D02*
X0013800Y0101300D01*
X0013800Y0098800D02*
X0016300Y0098800D01*
X0026300Y0098800D02*
X0028800Y0098800D01*
X0028800Y0101300D01*
X0028800Y0111300D02*
X0028800Y0113800D01*
X0026300Y0113800D01*
X0016300Y0113800D02*
X0013800Y0113800D01*
X0013800Y0111300D01*
X0253800Y0088800D02*
X0253800Y0086300D01*
X0253800Y0088800D02*
X0256300Y0088800D01*
X0266300Y0088800D02*
X0268800Y0088800D01*
X0268800Y0086300D01*
X0268800Y0076300D02*
X0268800Y0073800D01*
X0266300Y0073800D01*
X0256300Y0073800D02*
X0253800Y0073800D01*
X0253800Y0076300D01*
X0253800Y0058800D02*
X0256300Y0058800D01*
X0253800Y0058800D02*
X0253800Y0056300D01*
X0266300Y0058800D02*
X0268800Y0058800D01*
X0268800Y0056300D01*
X0268800Y0046300D02*
X0268800Y0043800D01*
X0266300Y0043800D01*
X0256300Y0043800D02*
X0253800Y0043800D01*
X0253800Y0046300D01*
D11*
X0254050Y0060550D02*
X0254050Y0065050D01*
X0255300Y0065050D01*
X0255369Y0065048D01*
X0255438Y0065042D01*
X0255506Y0065033D01*
X0255573Y0065020D01*
X0255640Y0065003D01*
X0255706Y0064982D01*
X0255770Y0064958D01*
X0255833Y0064930D01*
X0255895Y0064899D01*
X0255955Y0064865D01*
X0256012Y0064827D01*
X0256068Y0064786D01*
X0256121Y0064743D01*
X0256172Y0064696D01*
X0256220Y0064647D01*
X0256265Y0064595D01*
X0256307Y0064540D01*
X0256346Y0064484D01*
X0256383Y0064425D01*
X0256415Y0064364D01*
X0256445Y0064302D01*
X0256471Y0064238D01*
X0256493Y0064173D01*
X0256512Y0064107D01*
X0256527Y0064040D01*
X0256538Y0063972D01*
X0256546Y0063903D01*
X0256550Y0063834D01*
X0256550Y0063766D01*
X0256546Y0063697D01*
X0256538Y0063628D01*
X0256527Y0063560D01*
X0256512Y0063493D01*
X0256493Y0063427D01*
X0256471Y0063362D01*
X0256445Y0063298D01*
X0256415Y0063236D01*
X0256383Y0063175D01*
X0256346Y0063116D01*
X0256307Y0063060D01*
X0256265Y0063005D01*
X0256220Y0062953D01*
X0256172Y0062904D01*
X0256121Y0062857D01*
X0256068Y0062814D01*
X0256012Y0062773D01*
X0255955Y0062735D01*
X0255895Y0062701D01*
X0255833Y0062670D01*
X0255770Y0062642D01*
X0255706Y0062618D01*
X0255640Y0062597D01*
X0255573Y0062580D01*
X0255506Y0062567D01*
X0255438Y0062558D01*
X0255369Y0062552D01*
X0255300Y0062550D01*
X0254050Y0062550D01*
X0258450Y0061675D02*
X0260700Y0061675D01*
X0261075Y0060550D02*
X0259575Y0065050D01*
X0258075Y0060550D01*
X0262975Y0060550D02*
X0264225Y0060550D01*
X0262975Y0060550D02*
X0262975Y0065050D01*
X0264225Y0065050D01*
X0264293Y0065048D01*
X0264360Y0065043D01*
X0264427Y0065034D01*
X0264494Y0065021D01*
X0264559Y0065004D01*
X0264624Y0064985D01*
X0264688Y0064961D01*
X0264750Y0064934D01*
X0264811Y0064904D01*
X0264869Y0064871D01*
X0264926Y0064835D01*
X0264981Y0064795D01*
X0265034Y0064753D01*
X0265085Y0064707D01*
X0265132Y0064660D01*
X0265178Y0064609D01*
X0265220Y0064556D01*
X0265260Y0064501D01*
X0265296Y0064444D01*
X0265329Y0064386D01*
X0265359Y0064325D01*
X0265386Y0064263D01*
X0265410Y0064199D01*
X0265429Y0064134D01*
X0265446Y0064069D01*
X0265459Y0064002D01*
X0265468Y0063935D01*
X0265473Y0063868D01*
X0265475Y0063800D01*
X0265475Y0061800D01*
X0265473Y0061732D01*
X0265468Y0061665D01*
X0265459Y0061598D01*
X0265446Y0061531D01*
X0265429Y0061466D01*
X0265410Y0061401D01*
X0265386Y0061337D01*
X0265359Y0061275D01*
X0265329Y0061214D01*
X0265296Y0061156D01*
X0265260Y0061099D01*
X0265220Y0061044D01*
X0265178Y0060991D01*
X0265132Y0060940D01*
X0265085Y0060893D01*
X0265034Y0060847D01*
X0264981Y0060805D01*
X0264926Y0060765D01*
X0264869Y0060729D01*
X0264811Y0060696D01*
X0264750Y0060666D01*
X0264688Y0060639D01*
X0264624Y0060615D01*
X0264559Y0060596D01*
X0264494Y0060579D01*
X0264427Y0060566D01*
X0264360Y0060557D01*
X0264293Y0060552D01*
X0264225Y0060550D01*
X0267625Y0061550D02*
X0270125Y0061550D01*
X0269375Y0062550D02*
X0269375Y0060550D01*
X0267625Y0061550D02*
X0268625Y0065050D01*
X0268875Y0090550D02*
X0267625Y0090550D01*
X0268875Y0090550D02*
X0268944Y0090552D01*
X0269013Y0090558D01*
X0269081Y0090567D01*
X0269148Y0090580D01*
X0269215Y0090597D01*
X0269281Y0090618D01*
X0269345Y0090642D01*
X0269408Y0090670D01*
X0269470Y0090701D01*
X0269530Y0090735D01*
X0269587Y0090773D01*
X0269643Y0090814D01*
X0269696Y0090857D01*
X0269747Y0090904D01*
X0269795Y0090953D01*
X0269840Y0091005D01*
X0269882Y0091060D01*
X0269921Y0091116D01*
X0269958Y0091175D01*
X0269990Y0091236D01*
X0270020Y0091298D01*
X0270046Y0091362D01*
X0270068Y0091427D01*
X0270087Y0091493D01*
X0270102Y0091560D01*
X0270113Y0091628D01*
X0270121Y0091697D01*
X0270125Y0091766D01*
X0270125Y0091834D01*
X0270121Y0091903D01*
X0270113Y0091972D01*
X0270102Y0092040D01*
X0270087Y0092107D01*
X0270068Y0092173D01*
X0270046Y0092238D01*
X0270020Y0092302D01*
X0269990Y0092364D01*
X0269958Y0092425D01*
X0269921Y0092484D01*
X0269882Y0092540D01*
X0269840Y0092595D01*
X0269795Y0092647D01*
X0269747Y0092696D01*
X0269696Y0092743D01*
X0269643Y0092786D01*
X0269587Y0092827D01*
X0269530Y0092865D01*
X0269470Y0092899D01*
X0269408Y0092930D01*
X0269345Y0092958D01*
X0269281Y0092982D01*
X0269215Y0093003D01*
X0269148Y0093020D01*
X0269081Y0093033D01*
X0269013Y0093042D01*
X0268944Y0093048D01*
X0268875Y0093050D01*
X0269125Y0093050D02*
X0268125Y0093050D01*
X0269125Y0093050D02*
X0269187Y0093052D01*
X0269248Y0093058D01*
X0269309Y0093067D01*
X0269369Y0093080D01*
X0269428Y0093097D01*
X0269486Y0093118D01*
X0269543Y0093142D01*
X0269598Y0093169D01*
X0269651Y0093200D01*
X0269703Y0093234D01*
X0269752Y0093271D01*
X0269799Y0093311D01*
X0269843Y0093354D01*
X0269884Y0093399D01*
X0269923Y0093447D01*
X0269959Y0093498D01*
X0269991Y0093550D01*
X0270020Y0093604D01*
X0270046Y0093660D01*
X0270068Y0093718D01*
X0270087Y0093776D01*
X0270102Y0093836D01*
X0270113Y0093897D01*
X0270121Y0093958D01*
X0270125Y0094019D01*
X0270125Y0094081D01*
X0270121Y0094142D01*
X0270113Y0094203D01*
X0270102Y0094264D01*
X0270087Y0094324D01*
X0270068Y0094382D01*
X0270046Y0094440D01*
X0270020Y0094496D01*
X0269991Y0094550D01*
X0269959Y0094602D01*
X0269923Y0094653D01*
X0269884Y0094701D01*
X0269843Y0094746D01*
X0269799Y0094789D01*
X0269752Y0094829D01*
X0269703Y0094866D01*
X0269651Y0094900D01*
X0269598Y0094931D01*
X0269543Y0094958D01*
X0269486Y0094982D01*
X0269428Y0095003D01*
X0269369Y0095020D01*
X0269309Y0095033D01*
X0269248Y0095042D01*
X0269187Y0095048D01*
X0269125Y0095050D01*
X0267625Y0095050D01*
X0265475Y0093800D02*
X0265475Y0091800D01*
X0265473Y0091732D01*
X0265468Y0091665D01*
X0265459Y0091598D01*
X0265446Y0091531D01*
X0265429Y0091466D01*
X0265410Y0091401D01*
X0265386Y0091337D01*
X0265359Y0091275D01*
X0265329Y0091214D01*
X0265296Y0091156D01*
X0265260Y0091099D01*
X0265220Y0091044D01*
X0265178Y0090991D01*
X0265132Y0090940D01*
X0265085Y0090893D01*
X0265034Y0090847D01*
X0264981Y0090805D01*
X0264926Y0090765D01*
X0264869Y0090729D01*
X0264811Y0090696D01*
X0264750Y0090666D01*
X0264688Y0090639D01*
X0264624Y0090615D01*
X0264559Y0090596D01*
X0264494Y0090579D01*
X0264427Y0090566D01*
X0264360Y0090557D01*
X0264293Y0090552D01*
X0264225Y0090550D01*
X0262975Y0090550D01*
X0262975Y0095050D01*
X0264225Y0095050D01*
X0264293Y0095048D01*
X0264360Y0095043D01*
X0264427Y0095034D01*
X0264494Y0095021D01*
X0264559Y0095004D01*
X0264624Y0094985D01*
X0264688Y0094961D01*
X0264750Y0094934D01*
X0264811Y0094904D01*
X0264869Y0094871D01*
X0264926Y0094835D01*
X0264981Y0094795D01*
X0265034Y0094753D01*
X0265085Y0094707D01*
X0265132Y0094660D01*
X0265178Y0094609D01*
X0265220Y0094556D01*
X0265260Y0094501D01*
X0265296Y0094444D01*
X0265329Y0094386D01*
X0265359Y0094325D01*
X0265386Y0094263D01*
X0265410Y0094199D01*
X0265429Y0094134D01*
X0265446Y0094069D01*
X0265459Y0094002D01*
X0265468Y0093935D01*
X0265473Y0093868D01*
X0265475Y0093800D01*
X0260700Y0091675D02*
X0258450Y0091675D01*
X0258075Y0090550D02*
X0259575Y0095050D01*
X0261075Y0090550D01*
X0255300Y0092550D02*
X0254050Y0092550D01*
X0255300Y0092550D02*
X0255369Y0092552D01*
X0255438Y0092558D01*
X0255506Y0092567D01*
X0255573Y0092580D01*
X0255640Y0092597D01*
X0255706Y0092618D01*
X0255770Y0092642D01*
X0255833Y0092670D01*
X0255895Y0092701D01*
X0255955Y0092735D01*
X0256012Y0092773D01*
X0256068Y0092814D01*
X0256121Y0092857D01*
X0256172Y0092904D01*
X0256220Y0092953D01*
X0256265Y0093005D01*
X0256307Y0093060D01*
X0256346Y0093116D01*
X0256383Y0093175D01*
X0256415Y0093236D01*
X0256445Y0093298D01*
X0256471Y0093362D01*
X0256493Y0093427D01*
X0256512Y0093493D01*
X0256527Y0093560D01*
X0256538Y0093628D01*
X0256546Y0093697D01*
X0256550Y0093766D01*
X0256550Y0093834D01*
X0256546Y0093903D01*
X0256538Y0093972D01*
X0256527Y0094040D01*
X0256512Y0094107D01*
X0256493Y0094173D01*
X0256471Y0094238D01*
X0256445Y0094302D01*
X0256415Y0094364D01*
X0256383Y0094425D01*
X0256346Y0094484D01*
X0256307Y0094540D01*
X0256265Y0094595D01*
X0256220Y0094647D01*
X0256172Y0094696D01*
X0256121Y0094743D01*
X0256068Y0094786D01*
X0256012Y0094827D01*
X0255955Y0094865D01*
X0255895Y0094899D01*
X0255833Y0094930D01*
X0255770Y0094958D01*
X0255706Y0094982D01*
X0255640Y0095003D01*
X0255573Y0095020D01*
X0255506Y0095033D01*
X0255438Y0095042D01*
X0255369Y0095048D01*
X0255300Y0095050D01*
X0254050Y0095050D01*
X0254050Y0090550D01*
X0251300Y0106300D02*
X0251303Y0106545D01*
X0251312Y0106791D01*
X0251327Y0107036D01*
X0251348Y0107280D01*
X0251375Y0107524D01*
X0251408Y0107767D01*
X0251447Y0108010D01*
X0251492Y0108251D01*
X0251543Y0108491D01*
X0251600Y0108730D01*
X0251662Y0108967D01*
X0251731Y0109203D01*
X0251805Y0109437D01*
X0251885Y0109669D01*
X0251970Y0109899D01*
X0252061Y0110127D01*
X0252158Y0110352D01*
X0252260Y0110576D01*
X0252368Y0110796D01*
X0252481Y0111014D01*
X0252599Y0111229D01*
X0252723Y0111441D01*
X0252851Y0111650D01*
X0252985Y0111856D01*
X0253124Y0112058D01*
X0253268Y0112257D01*
X0253417Y0112452D01*
X0253570Y0112644D01*
X0253728Y0112832D01*
X0253890Y0113016D01*
X0254058Y0113195D01*
X0254229Y0113371D01*
X0254405Y0113542D01*
X0254584Y0113710D01*
X0254768Y0113872D01*
X0254956Y0114030D01*
X0255148Y0114183D01*
X0255343Y0114332D01*
X0255542Y0114476D01*
X0255744Y0114615D01*
X0255950Y0114749D01*
X0256159Y0114877D01*
X0256371Y0115001D01*
X0256586Y0115119D01*
X0256804Y0115232D01*
X0257024Y0115340D01*
X0257248Y0115442D01*
X0257473Y0115539D01*
X0257701Y0115630D01*
X0257931Y0115715D01*
X0258163Y0115795D01*
X0258397Y0115869D01*
X0258633Y0115938D01*
X0258870Y0116000D01*
X0259109Y0116057D01*
X0259349Y0116108D01*
X0259590Y0116153D01*
X0259833Y0116192D01*
X0260076Y0116225D01*
X0260320Y0116252D01*
X0260564Y0116273D01*
X0260809Y0116288D01*
X0261055Y0116297D01*
X0261300Y0116300D01*
X0261545Y0116297D01*
X0261791Y0116288D01*
X0262036Y0116273D01*
X0262280Y0116252D01*
X0262524Y0116225D01*
X0262767Y0116192D01*
X0263010Y0116153D01*
X0263251Y0116108D01*
X0263491Y0116057D01*
X0263730Y0116000D01*
X0263967Y0115938D01*
X0264203Y0115869D01*
X0264437Y0115795D01*
X0264669Y0115715D01*
X0264899Y0115630D01*
X0265127Y0115539D01*
X0265352Y0115442D01*
X0265576Y0115340D01*
X0265796Y0115232D01*
X0266014Y0115119D01*
X0266229Y0115001D01*
X0266441Y0114877D01*
X0266650Y0114749D01*
X0266856Y0114615D01*
X0267058Y0114476D01*
X0267257Y0114332D01*
X0267452Y0114183D01*
X0267644Y0114030D01*
X0267832Y0113872D01*
X0268016Y0113710D01*
X0268195Y0113542D01*
X0268371Y0113371D01*
X0268542Y0113195D01*
X0268710Y0113016D01*
X0268872Y0112832D01*
X0269030Y0112644D01*
X0269183Y0112452D01*
X0269332Y0112257D01*
X0269476Y0112058D01*
X0269615Y0111856D01*
X0269749Y0111650D01*
X0269877Y0111441D01*
X0270001Y0111229D01*
X0270119Y0111014D01*
X0270232Y0110796D01*
X0270340Y0110576D01*
X0270442Y0110352D01*
X0270539Y0110127D01*
X0270630Y0109899D01*
X0270715Y0109669D01*
X0270795Y0109437D01*
X0270869Y0109203D01*
X0270938Y0108967D01*
X0271000Y0108730D01*
X0271057Y0108491D01*
X0271108Y0108251D01*
X0271153Y0108010D01*
X0271192Y0107767D01*
X0271225Y0107524D01*
X0271252Y0107280D01*
X0271273Y0107036D01*
X0271288Y0106791D01*
X0271297Y0106545D01*
X0271300Y0106300D01*
X0271297Y0106055D01*
X0271288Y0105809D01*
X0271273Y0105564D01*
X0271252Y0105320D01*
X0271225Y0105076D01*
X0271192Y0104833D01*
X0271153Y0104590D01*
X0271108Y0104349D01*
X0271057Y0104109D01*
X0271000Y0103870D01*
X0270938Y0103633D01*
X0270869Y0103397D01*
X0270795Y0103163D01*
X0270715Y0102931D01*
X0270630Y0102701D01*
X0270539Y0102473D01*
X0270442Y0102248D01*
X0270340Y0102024D01*
X0270232Y0101804D01*
X0270119Y0101586D01*
X0270001Y0101371D01*
X0269877Y0101159D01*
X0269749Y0100950D01*
X0269615Y0100744D01*
X0269476Y0100542D01*
X0269332Y0100343D01*
X0269183Y0100148D01*
X0269030Y0099956D01*
X0268872Y0099768D01*
X0268710Y0099584D01*
X0268542Y0099405D01*
X0268371Y0099229D01*
X0268195Y0099058D01*
X0268016Y0098890D01*
X0267832Y0098728D01*
X0267644Y0098570D01*
X0267452Y0098417D01*
X0267257Y0098268D01*
X0267058Y0098124D01*
X0266856Y0097985D01*
X0266650Y0097851D01*
X0266441Y0097723D01*
X0266229Y0097599D01*
X0266014Y0097481D01*
X0265796Y0097368D01*
X0265576Y0097260D01*
X0265352Y0097158D01*
X0265127Y0097061D01*
X0264899Y0096970D01*
X0264669Y0096885D01*
X0264437Y0096805D01*
X0264203Y0096731D01*
X0263967Y0096662D01*
X0263730Y0096600D01*
X0263491Y0096543D01*
X0263251Y0096492D01*
X0263010Y0096447D01*
X0262767Y0096408D01*
X0262524Y0096375D01*
X0262280Y0096348D01*
X0262036Y0096327D01*
X0261791Y0096312D01*
X0261545Y0096303D01*
X0261300Y0096300D01*
X0261055Y0096303D01*
X0260809Y0096312D01*
X0260564Y0096327D01*
X0260320Y0096348D01*
X0260076Y0096375D01*
X0259833Y0096408D01*
X0259590Y0096447D01*
X0259349Y0096492D01*
X0259109Y0096543D01*
X0258870Y0096600D01*
X0258633Y0096662D01*
X0258397Y0096731D01*
X0258163Y0096805D01*
X0257931Y0096885D01*
X0257701Y0096970D01*
X0257473Y0097061D01*
X0257248Y0097158D01*
X0257024Y0097260D01*
X0256804Y0097368D01*
X0256586Y0097481D01*
X0256371Y0097599D01*
X0256159Y0097723D01*
X0255950Y0097851D01*
X0255744Y0097985D01*
X0255542Y0098124D01*
X0255343Y0098268D01*
X0255148Y0098417D01*
X0254956Y0098570D01*
X0254768Y0098728D01*
X0254584Y0098890D01*
X0254405Y0099058D01*
X0254229Y0099229D01*
X0254058Y0099405D01*
X0253890Y0099584D01*
X0253728Y0099768D01*
X0253570Y0099956D01*
X0253417Y0100148D01*
X0253268Y0100343D01*
X0253124Y0100542D01*
X0252985Y0100744D01*
X0252851Y0100950D01*
X0252723Y0101159D01*
X0252599Y0101371D01*
X0252481Y0101586D01*
X0252368Y0101804D01*
X0252260Y0102024D01*
X0252158Y0102248D01*
X0252061Y0102473D01*
X0251970Y0102701D01*
X0251885Y0102931D01*
X0251805Y0103163D01*
X0251731Y0103397D01*
X0251662Y0103633D01*
X0251600Y0103870D01*
X0251543Y0104109D01*
X0251492Y0104349D01*
X0251447Y0104590D01*
X0251408Y0104833D01*
X0251375Y0105076D01*
X0251348Y0105320D01*
X0251327Y0105564D01*
X0251312Y0105809D01*
X0251303Y0106055D01*
X0251300Y0106300D01*
X0244450Y0119843D02*
X0244450Y0012757D01*
X0038150Y0012757D01*
X0038150Y0119843D01*
X0244450Y0119843D01*
X0030125Y0115550D02*
X0027625Y0115550D01*
X0028875Y0115550D02*
X0028875Y0120050D01*
X0027625Y0119050D01*
X0025475Y0118800D02*
X0025475Y0116800D01*
X0025473Y0116732D01*
X0025468Y0116665D01*
X0025459Y0116598D01*
X0025446Y0116531D01*
X0025429Y0116466D01*
X0025410Y0116401D01*
X0025386Y0116337D01*
X0025359Y0116275D01*
X0025329Y0116214D01*
X0025296Y0116156D01*
X0025260Y0116099D01*
X0025220Y0116044D01*
X0025178Y0115991D01*
X0025132Y0115940D01*
X0025085Y0115893D01*
X0025034Y0115847D01*
X0024981Y0115805D01*
X0024926Y0115765D01*
X0024869Y0115729D01*
X0024811Y0115696D01*
X0024750Y0115666D01*
X0024688Y0115639D01*
X0024624Y0115615D01*
X0024559Y0115596D01*
X0024494Y0115579D01*
X0024427Y0115566D01*
X0024360Y0115557D01*
X0024293Y0115552D01*
X0024225Y0115550D01*
X0022975Y0115550D01*
X0022975Y0120050D01*
X0024225Y0120050D01*
X0024293Y0120048D01*
X0024360Y0120043D01*
X0024427Y0120034D01*
X0024494Y0120021D01*
X0024559Y0120004D01*
X0024624Y0119985D01*
X0024688Y0119961D01*
X0024750Y0119934D01*
X0024811Y0119904D01*
X0024869Y0119871D01*
X0024926Y0119835D01*
X0024981Y0119795D01*
X0025034Y0119753D01*
X0025085Y0119707D01*
X0025132Y0119660D01*
X0025178Y0119609D01*
X0025220Y0119556D01*
X0025260Y0119501D01*
X0025296Y0119444D01*
X0025329Y0119386D01*
X0025359Y0119325D01*
X0025386Y0119263D01*
X0025410Y0119199D01*
X0025429Y0119134D01*
X0025446Y0119069D01*
X0025459Y0119002D01*
X0025468Y0118935D01*
X0025473Y0118868D01*
X0025475Y0118800D01*
X0020700Y0116675D02*
X0018450Y0116675D01*
X0018075Y0115550D02*
X0019575Y0120050D01*
X0021075Y0115550D01*
X0015300Y0117550D02*
X0014050Y0117550D01*
X0015300Y0117550D02*
X0015369Y0117552D01*
X0015438Y0117558D01*
X0015506Y0117567D01*
X0015573Y0117580D01*
X0015640Y0117597D01*
X0015706Y0117618D01*
X0015770Y0117642D01*
X0015833Y0117670D01*
X0015895Y0117701D01*
X0015955Y0117735D01*
X0016012Y0117773D01*
X0016068Y0117814D01*
X0016121Y0117857D01*
X0016172Y0117904D01*
X0016220Y0117953D01*
X0016265Y0118005D01*
X0016307Y0118060D01*
X0016346Y0118116D01*
X0016383Y0118175D01*
X0016415Y0118236D01*
X0016445Y0118298D01*
X0016471Y0118362D01*
X0016493Y0118427D01*
X0016512Y0118493D01*
X0016527Y0118560D01*
X0016538Y0118628D01*
X0016546Y0118697D01*
X0016550Y0118766D01*
X0016550Y0118834D01*
X0016546Y0118903D01*
X0016538Y0118972D01*
X0016527Y0119040D01*
X0016512Y0119107D01*
X0016493Y0119173D01*
X0016471Y0119238D01*
X0016445Y0119302D01*
X0016415Y0119364D01*
X0016383Y0119425D01*
X0016346Y0119484D01*
X0016307Y0119540D01*
X0016265Y0119595D01*
X0016220Y0119647D01*
X0016172Y0119696D01*
X0016121Y0119743D01*
X0016068Y0119786D01*
X0016012Y0119827D01*
X0015955Y0119865D01*
X0015895Y0119899D01*
X0015833Y0119930D01*
X0015770Y0119958D01*
X0015706Y0119982D01*
X0015640Y0120003D01*
X0015573Y0120020D01*
X0015506Y0120033D01*
X0015438Y0120042D01*
X0015369Y0120048D01*
X0015300Y0120050D01*
X0014050Y0120050D01*
X0014050Y0115550D01*
X0011300Y0066300D02*
X0011303Y0066545D01*
X0011312Y0066791D01*
X0011327Y0067036D01*
X0011348Y0067280D01*
X0011375Y0067524D01*
X0011408Y0067767D01*
X0011447Y0068010D01*
X0011492Y0068251D01*
X0011543Y0068491D01*
X0011600Y0068730D01*
X0011662Y0068967D01*
X0011731Y0069203D01*
X0011805Y0069437D01*
X0011885Y0069669D01*
X0011970Y0069899D01*
X0012061Y0070127D01*
X0012158Y0070352D01*
X0012260Y0070576D01*
X0012368Y0070796D01*
X0012481Y0071014D01*
X0012599Y0071229D01*
X0012723Y0071441D01*
X0012851Y0071650D01*
X0012985Y0071856D01*
X0013124Y0072058D01*
X0013268Y0072257D01*
X0013417Y0072452D01*
X0013570Y0072644D01*
X0013728Y0072832D01*
X0013890Y0073016D01*
X0014058Y0073195D01*
X0014229Y0073371D01*
X0014405Y0073542D01*
X0014584Y0073710D01*
X0014768Y0073872D01*
X0014956Y0074030D01*
X0015148Y0074183D01*
X0015343Y0074332D01*
X0015542Y0074476D01*
X0015744Y0074615D01*
X0015950Y0074749D01*
X0016159Y0074877D01*
X0016371Y0075001D01*
X0016586Y0075119D01*
X0016804Y0075232D01*
X0017024Y0075340D01*
X0017248Y0075442D01*
X0017473Y0075539D01*
X0017701Y0075630D01*
X0017931Y0075715D01*
X0018163Y0075795D01*
X0018397Y0075869D01*
X0018633Y0075938D01*
X0018870Y0076000D01*
X0019109Y0076057D01*
X0019349Y0076108D01*
X0019590Y0076153D01*
X0019833Y0076192D01*
X0020076Y0076225D01*
X0020320Y0076252D01*
X0020564Y0076273D01*
X0020809Y0076288D01*
X0021055Y0076297D01*
X0021300Y0076300D01*
X0021545Y0076297D01*
X0021791Y0076288D01*
X0022036Y0076273D01*
X0022280Y0076252D01*
X0022524Y0076225D01*
X0022767Y0076192D01*
X0023010Y0076153D01*
X0023251Y0076108D01*
X0023491Y0076057D01*
X0023730Y0076000D01*
X0023967Y0075938D01*
X0024203Y0075869D01*
X0024437Y0075795D01*
X0024669Y0075715D01*
X0024899Y0075630D01*
X0025127Y0075539D01*
X0025352Y0075442D01*
X0025576Y0075340D01*
X0025796Y0075232D01*
X0026014Y0075119D01*
X0026229Y0075001D01*
X0026441Y0074877D01*
X0026650Y0074749D01*
X0026856Y0074615D01*
X0027058Y0074476D01*
X0027257Y0074332D01*
X0027452Y0074183D01*
X0027644Y0074030D01*
X0027832Y0073872D01*
X0028016Y0073710D01*
X0028195Y0073542D01*
X0028371Y0073371D01*
X0028542Y0073195D01*
X0028710Y0073016D01*
X0028872Y0072832D01*
X0029030Y0072644D01*
X0029183Y0072452D01*
X0029332Y0072257D01*
X0029476Y0072058D01*
X0029615Y0071856D01*
X0029749Y0071650D01*
X0029877Y0071441D01*
X0030001Y0071229D01*
X0030119Y0071014D01*
X0030232Y0070796D01*
X0030340Y0070576D01*
X0030442Y0070352D01*
X0030539Y0070127D01*
X0030630Y0069899D01*
X0030715Y0069669D01*
X0030795Y0069437D01*
X0030869Y0069203D01*
X0030938Y0068967D01*
X0031000Y0068730D01*
X0031057Y0068491D01*
X0031108Y0068251D01*
X0031153Y0068010D01*
X0031192Y0067767D01*
X0031225Y0067524D01*
X0031252Y0067280D01*
X0031273Y0067036D01*
X0031288Y0066791D01*
X0031297Y0066545D01*
X0031300Y0066300D01*
X0031297Y0066055D01*
X0031288Y0065809D01*
X0031273Y0065564D01*
X0031252Y0065320D01*
X0031225Y0065076D01*
X0031192Y0064833D01*
X0031153Y0064590D01*
X0031108Y0064349D01*
X0031057Y0064109D01*
X0031000Y0063870D01*
X0030938Y0063633D01*
X0030869Y0063397D01*
X0030795Y0063163D01*
X0030715Y0062931D01*
X0030630Y0062701D01*
X0030539Y0062473D01*
X0030442Y0062248D01*
X0030340Y0062024D01*
X0030232Y0061804D01*
X0030119Y0061586D01*
X0030001Y0061371D01*
X0029877Y0061159D01*
X0029749Y0060950D01*
X0029615Y0060744D01*
X0029476Y0060542D01*
X0029332Y0060343D01*
X0029183Y0060148D01*
X0029030Y0059956D01*
X0028872Y0059768D01*
X0028710Y0059584D01*
X0028542Y0059405D01*
X0028371Y0059229D01*
X0028195Y0059058D01*
X0028016Y0058890D01*
X0027832Y0058728D01*
X0027644Y0058570D01*
X0027452Y0058417D01*
X0027257Y0058268D01*
X0027058Y0058124D01*
X0026856Y0057985D01*
X0026650Y0057851D01*
X0026441Y0057723D01*
X0026229Y0057599D01*
X0026014Y0057481D01*
X0025796Y0057368D01*
X0025576Y0057260D01*
X0025352Y0057158D01*
X0025127Y0057061D01*
X0024899Y0056970D01*
X0024669Y0056885D01*
X0024437Y0056805D01*
X0024203Y0056731D01*
X0023967Y0056662D01*
X0023730Y0056600D01*
X0023491Y0056543D01*
X0023251Y0056492D01*
X0023010Y0056447D01*
X0022767Y0056408D01*
X0022524Y0056375D01*
X0022280Y0056348D01*
X0022036Y0056327D01*
X0021791Y0056312D01*
X0021545Y0056303D01*
X0021300Y0056300D01*
X0021055Y0056303D01*
X0020809Y0056312D01*
X0020564Y0056327D01*
X0020320Y0056348D01*
X0020076Y0056375D01*
X0019833Y0056408D01*
X0019590Y0056447D01*
X0019349Y0056492D01*
X0019109Y0056543D01*
X0018870Y0056600D01*
X0018633Y0056662D01*
X0018397Y0056731D01*
X0018163Y0056805D01*
X0017931Y0056885D01*
X0017701Y0056970D01*
X0017473Y0057061D01*
X0017248Y0057158D01*
X0017024Y0057260D01*
X0016804Y0057368D01*
X0016586Y0057481D01*
X0016371Y0057599D01*
X0016159Y0057723D01*
X0015950Y0057851D01*
X0015744Y0057985D01*
X0015542Y0058124D01*
X0015343Y0058268D01*
X0015148Y0058417D01*
X0014956Y0058570D01*
X0014768Y0058728D01*
X0014584Y0058890D01*
X0014405Y0059058D01*
X0014229Y0059229D01*
X0014058Y0059405D01*
X0013890Y0059584D01*
X0013728Y0059768D01*
X0013570Y0059956D01*
X0013417Y0060148D01*
X0013268Y0060343D01*
X0013124Y0060542D01*
X0012985Y0060744D01*
X0012851Y0060950D01*
X0012723Y0061159D01*
X0012599Y0061371D01*
X0012481Y0061586D01*
X0012368Y0061804D01*
X0012260Y0062024D01*
X0012158Y0062248D01*
X0012061Y0062473D01*
X0011970Y0062701D01*
X0011885Y0062931D01*
X0011805Y0063163D01*
X0011731Y0063397D01*
X0011662Y0063633D01*
X0011600Y0063870D01*
X0011543Y0064109D01*
X0011492Y0064349D01*
X0011447Y0064590D01*
X0011408Y0064833D01*
X0011375Y0065076D01*
X0011348Y0065320D01*
X0011327Y0065564D01*
X0011312Y0065809D01*
X0011303Y0066055D01*
X0011300Y0066300D01*
X0014050Y0035050D02*
X0015300Y0035050D01*
X0015369Y0035048D01*
X0015438Y0035042D01*
X0015506Y0035033D01*
X0015573Y0035020D01*
X0015640Y0035003D01*
X0015706Y0034982D01*
X0015770Y0034958D01*
X0015833Y0034930D01*
X0015895Y0034899D01*
X0015955Y0034865D01*
X0016012Y0034827D01*
X0016068Y0034786D01*
X0016121Y0034743D01*
X0016172Y0034696D01*
X0016220Y0034647D01*
X0016265Y0034595D01*
X0016307Y0034540D01*
X0016346Y0034484D01*
X0016383Y0034425D01*
X0016415Y0034364D01*
X0016445Y0034302D01*
X0016471Y0034238D01*
X0016493Y0034173D01*
X0016512Y0034107D01*
X0016527Y0034040D01*
X0016538Y0033972D01*
X0016546Y0033903D01*
X0016550Y0033834D01*
X0016550Y0033766D01*
X0016546Y0033697D01*
X0016538Y0033628D01*
X0016527Y0033560D01*
X0016512Y0033493D01*
X0016493Y0033427D01*
X0016471Y0033362D01*
X0016445Y0033298D01*
X0016415Y0033236D01*
X0016383Y0033175D01*
X0016346Y0033116D01*
X0016307Y0033060D01*
X0016265Y0033005D01*
X0016220Y0032953D01*
X0016172Y0032904D01*
X0016121Y0032857D01*
X0016068Y0032814D01*
X0016012Y0032773D01*
X0015955Y0032735D01*
X0015895Y0032701D01*
X0015833Y0032670D01*
X0015770Y0032642D01*
X0015706Y0032618D01*
X0015640Y0032597D01*
X0015573Y0032580D01*
X0015506Y0032567D01*
X0015438Y0032558D01*
X0015369Y0032552D01*
X0015300Y0032550D01*
X0014050Y0032550D01*
X0014050Y0030550D02*
X0014050Y0035050D01*
X0019575Y0035050D02*
X0021075Y0030550D01*
X0020700Y0031675D02*
X0018450Y0031675D01*
X0018075Y0030550D02*
X0019575Y0035050D01*
X0022975Y0035050D02*
X0024225Y0035050D01*
X0022975Y0035050D02*
X0022975Y0030550D01*
X0024225Y0030550D01*
X0024293Y0030552D01*
X0024360Y0030557D01*
X0024427Y0030566D01*
X0024494Y0030579D01*
X0024559Y0030596D01*
X0024624Y0030615D01*
X0024688Y0030639D01*
X0024750Y0030666D01*
X0024811Y0030696D01*
X0024869Y0030729D01*
X0024926Y0030765D01*
X0024981Y0030805D01*
X0025034Y0030847D01*
X0025085Y0030893D01*
X0025132Y0030940D01*
X0025178Y0030991D01*
X0025220Y0031044D01*
X0025260Y0031099D01*
X0025296Y0031156D01*
X0025329Y0031214D01*
X0025359Y0031275D01*
X0025386Y0031337D01*
X0025410Y0031401D01*
X0025429Y0031466D01*
X0025446Y0031531D01*
X0025459Y0031598D01*
X0025468Y0031665D01*
X0025473Y0031732D01*
X0025475Y0031800D01*
X0025475Y0033800D01*
X0025473Y0033868D01*
X0025468Y0033935D01*
X0025459Y0034002D01*
X0025446Y0034069D01*
X0025429Y0034134D01*
X0025410Y0034199D01*
X0025386Y0034263D01*
X0025359Y0034325D01*
X0025329Y0034386D01*
X0025296Y0034444D01*
X0025260Y0034501D01*
X0025220Y0034556D01*
X0025178Y0034609D01*
X0025132Y0034660D01*
X0025085Y0034707D01*
X0025034Y0034753D01*
X0024981Y0034795D01*
X0024926Y0034835D01*
X0024869Y0034871D01*
X0024811Y0034904D01*
X0024750Y0034934D01*
X0024688Y0034961D01*
X0024624Y0034985D01*
X0024559Y0035004D01*
X0024494Y0035021D01*
X0024427Y0035034D01*
X0024360Y0035043D01*
X0024293Y0035048D01*
X0024225Y0035050D01*
X0029750Y0033050D02*
X0029796Y0033096D01*
X0029840Y0033145D01*
X0029880Y0033196D01*
X0029918Y0033249D01*
X0029953Y0033304D01*
X0029985Y0033361D01*
X0030014Y0033419D01*
X0030040Y0033479D01*
X0030062Y0033541D01*
X0030081Y0033603D01*
X0030097Y0033666D01*
X0030109Y0033730D01*
X0030118Y0033795D01*
X0030123Y0033860D01*
X0030125Y0033925D01*
X0029750Y0033050D02*
X0027625Y0030550D01*
X0030125Y0030550D01*
X0027625Y0034050D02*
X0027649Y0034119D01*
X0027677Y0034186D01*
X0027708Y0034252D01*
X0027742Y0034316D01*
X0027779Y0034378D01*
X0027820Y0034439D01*
X0027863Y0034497D01*
X0027909Y0034553D01*
X0027959Y0034607D01*
X0028010Y0034658D01*
X0028064Y0034706D01*
X0028121Y0034752D01*
X0028180Y0034795D01*
X0028241Y0034834D01*
X0028303Y0034871D01*
X0028368Y0034904D01*
X0028434Y0034935D01*
X0028502Y0034961D01*
X0028570Y0034985D01*
X0028640Y0035005D01*
X0028711Y0035021D01*
X0028783Y0035034D01*
X0028855Y0035043D01*
X0028927Y0035048D01*
X0029000Y0035050D01*
X0029065Y0035048D01*
X0029131Y0035042D01*
X0029195Y0035033D01*
X0029259Y0035020D01*
X0029323Y0035003D01*
X0029385Y0034982D01*
X0029446Y0034958D01*
X0029505Y0034930D01*
X0029563Y0034899D01*
X0029618Y0034865D01*
X0029672Y0034827D01*
X0029723Y0034787D01*
X0029772Y0034743D01*
X0029818Y0034697D01*
X0029862Y0034648D01*
X0029902Y0034597D01*
X0029940Y0034543D01*
X0029974Y0034488D01*
X0030005Y0034430D01*
X0030033Y0034371D01*
X0030057Y0034310D01*
X0030078Y0034248D01*
X0030095Y0034184D01*
X0030108Y0034120D01*
X0030117Y0034056D01*
X0030123Y0033990D01*
X0030125Y0033925D01*
X0251300Y0021300D02*
X0251303Y0021545D01*
X0251312Y0021791D01*
X0251327Y0022036D01*
X0251348Y0022280D01*
X0251375Y0022524D01*
X0251408Y0022767D01*
X0251447Y0023010D01*
X0251492Y0023251D01*
X0251543Y0023491D01*
X0251600Y0023730D01*
X0251662Y0023967D01*
X0251731Y0024203D01*
X0251805Y0024437D01*
X0251885Y0024669D01*
X0251970Y0024899D01*
X0252061Y0025127D01*
X0252158Y0025352D01*
X0252260Y0025576D01*
X0252368Y0025796D01*
X0252481Y0026014D01*
X0252599Y0026229D01*
X0252723Y0026441D01*
X0252851Y0026650D01*
X0252985Y0026856D01*
X0253124Y0027058D01*
X0253268Y0027257D01*
X0253417Y0027452D01*
X0253570Y0027644D01*
X0253728Y0027832D01*
X0253890Y0028016D01*
X0254058Y0028195D01*
X0254229Y0028371D01*
X0254405Y0028542D01*
X0254584Y0028710D01*
X0254768Y0028872D01*
X0254956Y0029030D01*
X0255148Y0029183D01*
X0255343Y0029332D01*
X0255542Y0029476D01*
X0255744Y0029615D01*
X0255950Y0029749D01*
X0256159Y0029877D01*
X0256371Y0030001D01*
X0256586Y0030119D01*
X0256804Y0030232D01*
X0257024Y0030340D01*
X0257248Y0030442D01*
X0257473Y0030539D01*
X0257701Y0030630D01*
X0257931Y0030715D01*
X0258163Y0030795D01*
X0258397Y0030869D01*
X0258633Y0030938D01*
X0258870Y0031000D01*
X0259109Y0031057D01*
X0259349Y0031108D01*
X0259590Y0031153D01*
X0259833Y0031192D01*
X0260076Y0031225D01*
X0260320Y0031252D01*
X0260564Y0031273D01*
X0260809Y0031288D01*
X0261055Y0031297D01*
X0261300Y0031300D01*
X0261545Y0031297D01*
X0261791Y0031288D01*
X0262036Y0031273D01*
X0262280Y0031252D01*
X0262524Y0031225D01*
X0262767Y0031192D01*
X0263010Y0031153D01*
X0263251Y0031108D01*
X0263491Y0031057D01*
X0263730Y0031000D01*
X0263967Y0030938D01*
X0264203Y0030869D01*
X0264437Y0030795D01*
X0264669Y0030715D01*
X0264899Y0030630D01*
X0265127Y0030539D01*
X0265352Y0030442D01*
X0265576Y0030340D01*
X0265796Y0030232D01*
X0266014Y0030119D01*
X0266229Y0030001D01*
X0266441Y0029877D01*
X0266650Y0029749D01*
X0266856Y0029615D01*
X0267058Y0029476D01*
X0267257Y0029332D01*
X0267452Y0029183D01*
X0267644Y0029030D01*
X0267832Y0028872D01*
X0268016Y0028710D01*
X0268195Y0028542D01*
X0268371Y0028371D01*
X0268542Y0028195D01*
X0268710Y0028016D01*
X0268872Y0027832D01*
X0269030Y0027644D01*
X0269183Y0027452D01*
X0269332Y0027257D01*
X0269476Y0027058D01*
X0269615Y0026856D01*
X0269749Y0026650D01*
X0269877Y0026441D01*
X0270001Y0026229D01*
X0270119Y0026014D01*
X0270232Y0025796D01*
X0270340Y0025576D01*
X0270442Y0025352D01*
X0270539Y0025127D01*
X0270630Y0024899D01*
X0270715Y0024669D01*
X0270795Y0024437D01*
X0270869Y0024203D01*
X0270938Y0023967D01*
X0271000Y0023730D01*
X0271057Y0023491D01*
X0271108Y0023251D01*
X0271153Y0023010D01*
X0271192Y0022767D01*
X0271225Y0022524D01*
X0271252Y0022280D01*
X0271273Y0022036D01*
X0271288Y0021791D01*
X0271297Y0021545D01*
X0271300Y0021300D01*
X0271297Y0021055D01*
X0271288Y0020809D01*
X0271273Y0020564D01*
X0271252Y0020320D01*
X0271225Y0020076D01*
X0271192Y0019833D01*
X0271153Y0019590D01*
X0271108Y0019349D01*
X0271057Y0019109D01*
X0271000Y0018870D01*
X0270938Y0018633D01*
X0270869Y0018397D01*
X0270795Y0018163D01*
X0270715Y0017931D01*
X0270630Y0017701D01*
X0270539Y0017473D01*
X0270442Y0017248D01*
X0270340Y0017024D01*
X0270232Y0016804D01*
X0270119Y0016586D01*
X0270001Y0016371D01*
X0269877Y0016159D01*
X0269749Y0015950D01*
X0269615Y0015744D01*
X0269476Y0015542D01*
X0269332Y0015343D01*
X0269183Y0015148D01*
X0269030Y0014956D01*
X0268872Y0014768D01*
X0268710Y0014584D01*
X0268542Y0014405D01*
X0268371Y0014229D01*
X0268195Y0014058D01*
X0268016Y0013890D01*
X0267832Y0013728D01*
X0267644Y0013570D01*
X0267452Y0013417D01*
X0267257Y0013268D01*
X0267058Y0013124D01*
X0266856Y0012985D01*
X0266650Y0012851D01*
X0266441Y0012723D01*
X0266229Y0012599D01*
X0266014Y0012481D01*
X0265796Y0012368D01*
X0265576Y0012260D01*
X0265352Y0012158D01*
X0265127Y0012061D01*
X0264899Y0011970D01*
X0264669Y0011885D01*
X0264437Y0011805D01*
X0264203Y0011731D01*
X0263967Y0011662D01*
X0263730Y0011600D01*
X0263491Y0011543D01*
X0263251Y0011492D01*
X0263010Y0011447D01*
X0262767Y0011408D01*
X0262524Y0011375D01*
X0262280Y0011348D01*
X0262036Y0011327D01*
X0261791Y0011312D01*
X0261545Y0011303D01*
X0261300Y0011300D01*
X0261055Y0011303D01*
X0260809Y0011312D01*
X0260564Y0011327D01*
X0260320Y0011348D01*
X0260076Y0011375D01*
X0259833Y0011408D01*
X0259590Y0011447D01*
X0259349Y0011492D01*
X0259109Y0011543D01*
X0258870Y0011600D01*
X0258633Y0011662D01*
X0258397Y0011731D01*
X0258163Y0011805D01*
X0257931Y0011885D01*
X0257701Y0011970D01*
X0257473Y0012061D01*
X0257248Y0012158D01*
X0257024Y0012260D01*
X0256804Y0012368D01*
X0256586Y0012481D01*
X0256371Y0012599D01*
X0256159Y0012723D01*
X0255950Y0012851D01*
X0255744Y0012985D01*
X0255542Y0013124D01*
X0255343Y0013268D01*
X0255148Y0013417D01*
X0254956Y0013570D01*
X0254768Y0013728D01*
X0254584Y0013890D01*
X0254405Y0014058D01*
X0254229Y0014229D01*
X0254058Y0014405D01*
X0253890Y0014584D01*
X0253728Y0014768D01*
X0253570Y0014956D01*
X0253417Y0015148D01*
X0253268Y0015343D01*
X0253124Y0015542D01*
X0252985Y0015744D01*
X0252851Y0015950D01*
X0252723Y0016159D01*
X0252599Y0016371D01*
X0252481Y0016586D01*
X0252368Y0016804D01*
X0252260Y0017024D01*
X0252158Y0017248D01*
X0252061Y0017473D01*
X0251970Y0017701D01*
X0251885Y0017931D01*
X0251805Y0018163D01*
X0251731Y0018397D01*
X0251662Y0018633D01*
X0251600Y0018870D01*
X0251543Y0019109D01*
X0251492Y0019349D01*
X0251447Y0019590D01*
X0251408Y0019833D01*
X0251375Y0020076D01*
X0251348Y0020320D01*
X0251327Y0020564D01*
X0251312Y0020809D01*
X0251303Y0021055D01*
X0251300Y0021300D01*
D12*
X0214367Y0023289D02*
X0211300Y0023289D01*
X0209567Y0026100D02*
X0208033Y0021500D01*
X0206500Y0026100D01*
X0208033Y0056500D02*
X0209567Y0061100D01*
X0206500Y0061100D02*
X0208033Y0056500D01*
X0211300Y0058289D02*
X0214367Y0058289D01*
X0212833Y0056756D02*
X0212833Y0059822D01*
X0142606Y0071500D02*
X0140050Y0071500D01*
X0141328Y0071500D02*
X0141328Y0076100D01*
X0140050Y0075078D01*
X0137767Y0073417D02*
X0137128Y0073800D01*
X0136489Y0074183D01*
X0136105Y0072267D02*
X0136180Y0072224D01*
X0136256Y0072185D01*
X0136334Y0072148D01*
X0136413Y0072116D01*
X0136494Y0072086D01*
X0136576Y0072060D01*
X0136659Y0072038D01*
X0136743Y0072019D01*
X0136827Y0072003D01*
X0136912Y0071992D01*
X0136998Y0071984D01*
X0137083Y0071979D01*
X0137169Y0071978D01*
X0137255Y0071981D01*
X0137341Y0071987D01*
X0137426Y0071997D01*
X0137511Y0072011D01*
X0137128Y0071500D02*
X0137128Y0076100D01*
X0136745Y0075589D02*
X0136692Y0075577D01*
X0136640Y0075562D01*
X0136589Y0075542D01*
X0136540Y0075520D01*
X0136492Y0075494D01*
X0136446Y0075464D01*
X0136403Y0075432D01*
X0136362Y0075396D01*
X0136323Y0075358D01*
X0136288Y0075317D01*
X0136255Y0075273D01*
X0136226Y0075228D01*
X0136200Y0075180D01*
X0136177Y0075130D01*
X0136158Y0075080D01*
X0136143Y0075028D01*
X0136131Y0074974D01*
X0136124Y0074921D01*
X0136120Y0074867D01*
X0136119Y0074812D01*
X0136123Y0074758D01*
X0136131Y0074704D01*
X0136142Y0074651D01*
X0136157Y0074599D01*
X0136176Y0074548D01*
X0136199Y0074499D01*
X0136224Y0074451D01*
X0136254Y0074405D01*
X0136286Y0074362D01*
X0136321Y0074320D01*
X0136360Y0074282D01*
X0136401Y0074246D01*
X0136444Y0074213D01*
X0136489Y0074184D01*
X0136744Y0075589D02*
X0136829Y0075603D01*
X0136914Y0075613D01*
X0137000Y0075619D01*
X0137086Y0075622D01*
X0137172Y0075621D01*
X0137257Y0075616D01*
X0137343Y0075608D01*
X0137428Y0075597D01*
X0137512Y0075581D01*
X0137596Y0075562D01*
X0137679Y0075540D01*
X0137761Y0075514D01*
X0137842Y0075484D01*
X0137921Y0075452D01*
X0137999Y0075415D01*
X0138075Y0075376D01*
X0138150Y0075333D01*
X0134056Y0076100D02*
X0134056Y0072778D01*
X0134054Y0072708D01*
X0134048Y0072637D01*
X0134039Y0072568D01*
X0134025Y0072499D01*
X0134008Y0072430D01*
X0133987Y0072363D01*
X0133962Y0072297D01*
X0133934Y0072233D01*
X0133902Y0072170D01*
X0133867Y0072109D01*
X0133828Y0072050D01*
X0133787Y0071993D01*
X0133742Y0071939D01*
X0133694Y0071887D01*
X0133644Y0071838D01*
X0133590Y0071791D01*
X0133535Y0071748D01*
X0133477Y0071708D01*
X0133417Y0071671D01*
X0133355Y0071638D01*
X0133291Y0071608D01*
X0133226Y0071581D01*
X0133160Y0071558D01*
X0133092Y0071539D01*
X0133023Y0071524D01*
X0132954Y0071512D01*
X0132884Y0071504D01*
X0132813Y0071500D01*
X0132743Y0071500D01*
X0132672Y0071504D01*
X0132602Y0071512D01*
X0132533Y0071524D01*
X0132464Y0071539D01*
X0132396Y0071558D01*
X0132330Y0071581D01*
X0132265Y0071608D01*
X0132201Y0071638D01*
X0132139Y0071671D01*
X0132079Y0071708D01*
X0132021Y0071748D01*
X0131966Y0071791D01*
X0131912Y0071838D01*
X0131862Y0071887D01*
X0131814Y0071939D01*
X0131769Y0071993D01*
X0131728Y0072050D01*
X0131689Y0072109D01*
X0131654Y0072170D01*
X0131622Y0072233D01*
X0131594Y0072297D01*
X0131569Y0072363D01*
X0131548Y0072430D01*
X0131531Y0072499D01*
X0131517Y0072568D01*
X0131508Y0072637D01*
X0131502Y0072708D01*
X0131500Y0072778D01*
X0131500Y0076100D01*
X0137767Y0073416D02*
X0137812Y0073387D01*
X0137855Y0073354D01*
X0137896Y0073318D01*
X0137935Y0073280D01*
X0137970Y0073238D01*
X0138002Y0073195D01*
X0138032Y0073149D01*
X0138057Y0073101D01*
X0138080Y0073052D01*
X0138099Y0073001D01*
X0138114Y0072949D01*
X0138125Y0072896D01*
X0138133Y0072842D01*
X0138137Y0072788D01*
X0138136Y0072733D01*
X0138132Y0072679D01*
X0138125Y0072626D01*
X0138113Y0072572D01*
X0138098Y0072520D01*
X0138079Y0072470D01*
X0138056Y0072420D01*
X0138030Y0072372D01*
X0138001Y0072327D01*
X0137968Y0072283D01*
X0137933Y0072242D01*
X0137894Y0072204D01*
X0137853Y0072168D01*
X0137810Y0072136D01*
X0137764Y0072106D01*
X0137716Y0072080D01*
X0137667Y0072058D01*
X0137616Y0072038D01*
X0137564Y0072023D01*
X0137511Y0072011D01*
X0081311Y0101500D02*
X0081311Y0106100D01*
X0078756Y0106100D02*
X0081311Y0101500D01*
X0078756Y0101500D02*
X0078756Y0106100D01*
X0076856Y0106611D02*
X0074811Y0100989D01*
X0073287Y0101500D02*
X0072265Y0101500D01*
X0072203Y0101502D01*
X0072142Y0101507D01*
X0072081Y0101517D01*
X0072020Y0101530D01*
X0071961Y0101546D01*
X0071903Y0101566D01*
X0071846Y0101590D01*
X0071790Y0101617D01*
X0071736Y0101647D01*
X0071684Y0101681D01*
X0071635Y0101717D01*
X0071587Y0101757D01*
X0071542Y0101799D01*
X0071500Y0101844D01*
X0071460Y0101892D01*
X0071424Y0101941D01*
X0071390Y0101993D01*
X0071360Y0102047D01*
X0071333Y0102103D01*
X0071309Y0102160D01*
X0071289Y0102218D01*
X0071273Y0102277D01*
X0071260Y0102338D01*
X0071250Y0102399D01*
X0071245Y0102460D01*
X0071243Y0102522D01*
X0071242Y0102522D02*
X0071242Y0105078D01*
X0071243Y0105078D02*
X0071245Y0105140D01*
X0071250Y0105201D01*
X0071260Y0105262D01*
X0071273Y0105323D01*
X0071289Y0105382D01*
X0071309Y0105440D01*
X0071333Y0105497D01*
X0071360Y0105553D01*
X0071390Y0105607D01*
X0071424Y0105659D01*
X0071460Y0105708D01*
X0071500Y0105756D01*
X0071542Y0105801D01*
X0071587Y0105843D01*
X0071635Y0105882D01*
X0071684Y0105919D01*
X0071736Y0105953D01*
X0071790Y0105983D01*
X0071846Y0106010D01*
X0071903Y0106034D01*
X0071961Y0106054D01*
X0072020Y0106070D01*
X0072081Y0106083D01*
X0072142Y0106093D01*
X0072203Y0106098D01*
X0072265Y0106100D01*
X0073287Y0106100D01*
X0068033Y0106100D02*
X0069567Y0101500D01*
X0069183Y0102650D02*
X0066883Y0102650D01*
X0066500Y0101500D02*
X0068033Y0106100D01*
X0068033Y0031100D02*
X0069567Y0026500D01*
X0069183Y0027650D02*
X0066883Y0027650D01*
X0066500Y0026500D02*
X0068033Y0031100D01*
X0071242Y0030078D02*
X0071242Y0027522D01*
X0071243Y0027522D02*
X0071245Y0027460D01*
X0071250Y0027399D01*
X0071260Y0027338D01*
X0071273Y0027277D01*
X0071289Y0027218D01*
X0071309Y0027160D01*
X0071333Y0027103D01*
X0071360Y0027047D01*
X0071390Y0026993D01*
X0071424Y0026941D01*
X0071460Y0026892D01*
X0071500Y0026844D01*
X0071542Y0026799D01*
X0071587Y0026757D01*
X0071635Y0026717D01*
X0071684Y0026681D01*
X0071736Y0026647D01*
X0071790Y0026617D01*
X0071846Y0026590D01*
X0071903Y0026566D01*
X0071961Y0026546D01*
X0072020Y0026530D01*
X0072081Y0026517D01*
X0072142Y0026507D01*
X0072203Y0026502D01*
X0072265Y0026500D01*
X0073287Y0026500D01*
X0074811Y0025989D02*
X0076856Y0031611D01*
X0078764Y0031100D02*
X0078764Y0026500D01*
X0080809Y0026500D01*
X0072265Y0031100D02*
X0072203Y0031098D01*
X0072142Y0031093D01*
X0072081Y0031083D01*
X0072020Y0031070D01*
X0071961Y0031054D01*
X0071903Y0031034D01*
X0071846Y0031010D01*
X0071790Y0030983D01*
X0071736Y0030953D01*
X0071684Y0030919D01*
X0071635Y0030882D01*
X0071587Y0030843D01*
X0071542Y0030801D01*
X0071500Y0030756D01*
X0071460Y0030708D01*
X0071424Y0030659D01*
X0071390Y0030607D01*
X0071360Y0030553D01*
X0071333Y0030497D01*
X0071309Y0030440D01*
X0071289Y0030382D01*
X0071273Y0030323D01*
X0071260Y0030262D01*
X0071250Y0030201D01*
X0071245Y0030140D01*
X0071243Y0030078D01*
X0072265Y0031100D02*
X0073287Y0031100D01*
M02*
